<svg xmlns="http://www.w3.org/2000/svg" width="48" height="48" viewBox="0 0 48 48">
  <g fill="#333" fill-rule="evenodd" transform="translate(9 8)">
    <path d="M22.5302,18.1305262 C22.1294,18.4349262 21.6617,18.6488262 21.1636,18.7578262 C21.1553,18.7596262 21.147,18.7614262 21.1387,18.7632262 C20.8958,18.8145262 20.6458,18.8410262 20.3929,18.8410262 C20.3929,18.8410262 20.3929,18.8410262 20.3929,18.8410262 L19.8571,18.8410262 L19.8571,20.0243262 L21.1387,20.0243262 C21.7446,20.0362262 22.3463,20.1053262 22.9347,20.2298262 C23.5086,20.3512262 24.0699,20.5253262 24.6105,20.7504262 C25.7054,21.2063262 26.6933,21.8620262 27.517,22.6798262 C28.3408,23.4976262 28.984,24.4611262 29.4094,25.5145262 C29.8348,26.5680262 30.0339,27.6904262 29.9953,28.8168262 L29.9953,32.0000262 L0,32.0000262 L0,27.6335262 C0.05556,25.5940262 0.95669,23.6560262 2.5106,22.2340262 C4.054,20.8216262 6.1197,20.0297262 8.2709,20.0243262 C8.2857,20.0242262 8.3004,20.0242262 8.3151,20.0243262 L9.8732,20.0243262 L9.8732,14.4539262 C8.4628,13.4175262 7.4315,11.9922262 6.9236,10.3772262 C6.4156,8.76222623 6.4563,7.03812623 7.0399,5.44592623 C7.6236,3.85372623 8.7211,2.47302623 10.179,1.49662623 C11.6369,0.52022623 13.3825,-0.0030137697 15.1717,1.30583594e-05 C17.0206,0.0135262303 18.8167,0.58222623 20.2984,1.62342623 C21.7801,2.66462623 22.87,4.12402623 23.4094,5.78882623 C23.5835,6.40782623 23.7769,8.22822623 23.7769,8.22822623 C24.0863,9.01092623 24.415,9.77552623 24.7437,10.5401262 L25.2078,11.6505262 C25.3799,11.9492262 25.4971,12.2731262 25.5547,12.6085262 C25.5551,12.6107262 25.5555,12.6130262 25.5559,12.6153262 C25.5559,12.6157262 25.5559,12.6161262 25.556,12.6164262 C25.5682,12.8404262 25.4922,13.0607262 25.3425,13.2351262 C25.1926,13.4099262 24.9793,13.5263262 24.7437,13.5619262 C24.7279,13.5619262 24.679,13.5665262 24.6111,13.5728262 C24.3469,13.5974262 23.7962,13.6488262 23.7962,13.5619262 L23.7962,15.6553262 C23.7911,16.5019262 23.4303,17.3122262 22.7926,17.9091262 C22.7088,17.9874262 22.6212,18.0613262 22.5302,18.1305262 Z M21.7962,15.6477262 C21.7933,15.9244262 21.6756,16.2151262 21.4258,16.4489262 C21.1706,16.6878262 20.8011,16.8410262 20.3928,16.8410262 L19.8571,16.8410262 C18.7526,16.8410262 17.8571,17.7365262 17.8571,18.8410262 L17.8571,20.0243262 C17.8571,21.1288262 18.7526,22.0243262 19.8571,22.0243262 L21.118,22.0243262 C22.0603,22.0451262 22.9862,22.2405262 23.8418,22.5968262 C24.7029,22.9553262 25.4721,23.4679262 26.108,24.0992262 C26.7436,24.7302262 27.2332,25.4669262 27.5549,26.2634262 C27.8764,27.0596262 28.0254,27.9037262 27.9965,28.7482262 C27.9957,28.7710262 27.9953,28.7939262 27.9953,28.8168262 L27.9953,30.0000231 L2,30.0000231 L2,27.6629262 C2.0469,26.1939262 2.699,24.7727262 3.8608,23.7095262 C5.0332,22.6367262 6.6285,22.0201262 8.3101,22.0243262 L9.8732,22.0243262 C10.9778,22.0243262 11.8732,21.1288262 11.8732,20.0243262 L11.8732,14.4539262 C11.8732,13.8175262 11.5703,13.2191262 11.0575,12.8422262 C9.9772,12.0485262 9.2073,10.9722262 8.8314,9.77712623 C8.4561,8.58392623 8.4857,7.31282623 8.9178,6.13432623 C9.3505,4.95382623 10.1724,3.90812623 11.2919,3.15832623 C12.4113,2.40872623 13.7646,1.99872623 15.1627,2.00002315 C16.6122,2.01172623 18.0084,2.45862623 19.1485,3.25982623 C20.2745,4.05112623 21.0858,5.14092623 21.4918,6.35962623 C21.5339,6.53042623 21.6052,6.96782623 21.6755,7.50172623 C21.7088,7.75462623 21.7371,7.99052623 21.7572,8.16382623 C21.7671,8.25012623 21.775,8.32022623 21.7803,8.36822623 L21.7863,8.42272623 L21.788,8.43902623 C21.788,8.43912623 21.788,8.43902623 21.788,8.43902623 C21.8071,8.61872623 21.8505,8.79542623 21.9169,8.96332623 C22.2372,9.77382623 22.5758,10.5613262 22.9011,11.3178262 L22.9023,11.3207262 L23.0614,11.7012262 C22.3204,11.9941262 21.7962,12.7168262 21.7962,13.5619262 L21.7962,15.6477262 Z"/>
    <path fill-rule="nonzero" d="M15,20.5 C15,21.8807 14.5523,23 14,23 C13.4477,23 13,21.8807 13,20.5 C13,19.1193 13.4477,18 14,18 C14.5523,18 15,19.1193 15,20.5 Z"/>
    <path d="M14,23 C14.5523,23 15,21.8807 15,20.5 C15,19.1193 14.5523,18 14,18 C13.4477,18 13,19.1193 13,20.5 C13,21.8807 13.4477,23 14,23 Z"/>
    <path fill-rule="nonzero" d="M17,20.5 C17,21.8807 16.5523,23 16,23 C15.4477,23 15,21.8807 15,20.5 C15,19.1193 15.4477,18 16,18 C16.5523,18 17,19.1193 17,20.5 Z"/>
    <path d="M16 23C16.5523 23 17 21.8807 17 20.5 17 19.1193 16.5523 18 16 18 15.4477 18 15 19.1193 15 20.5 15 21.8807 15.4477 23 16 23zM15 24C15.5523 24 16 24.4477 16 25L16 29.5C16 30.0523 15.5523 30.5 15 30.5 14.4477 30.5 14 30.0523 14 29.5L14 25C14 24.4477 14.4477 24 15 24z"/>
  </g>
</svg>
