<?xml version="1.0" encoding="UTF-8"?><svg id="Layer_1" xmlns="http://www.w3.org/2000/svg" viewBox="0 0 292 234"><defs><style>.cls-1{fill:#23224c;}</style></defs><g><path class="cls-1" d="M46.63,186.56v-.46c.86-.34,1.53-.83,2.01-1.48,.48-.65,.82-1.54,1.04-2.68,.21-1.14,.32-2.6,.32-4.38v-20.4h1.34v20.31c0,1.69,.14,3.09,.42,4.2,.28,1.11,.74,2.01,1.38,2.7,.65,.69,1.52,1.27,2.63,1.73v.46h-9.14Zm24.46,.32l-20.59-27.37-.92-1.25c-.31-.46-.6-.82-.88-1.09-.28-.26-.55-.48-.83-.67s-.57-.32-.88-.42v-.46h6.42l17.96,23.96,.42,7.29h-.69Zm.69,0l-1.34-1.38v-21.92c0-1.48-.12-2.7-.37-3.67s-.66-1.75-1.25-2.35c-.58-.6-1.38-1.09-2.4-1.45v-.46h8.36v.46c-.71,.34-1.28,.78-1.71,1.34-.43,.55-.75,1.3-.97,2.24-.22,.94-.32,2.18-.32,3.72v23.49Z"/><path class="cls-1" d="M77.34,186.56v-.46c.65-.15,1.11-.43,1.39-.83,.28-.4,.42-1.06,.42-1.98v-24.37c0-.92-.14-1.58-.42-1.98s-.74-.68-1.39-.83v-.46h8.26v.46c-.68,.15-1.15,.43-1.43,.83-.28,.4-.42,1.06-.42,1.98v24.37c0,.92,.14,1.59,.42,1.98,.28,.4,.75,.68,1.43,.83v.46h-8.26Z"/><path class="cls-1" d="M103.09,187.02c-2.89,0-5.45-.68-7.69-2.05-2.23-1.37-3.98-3.25-5.24-5.63-1.26-2.38-1.89-5.12-1.89-8.19,0-2.28,.35-4.38,1.06-6.32,.71-1.94,1.71-3.62,3-5.05,1.29-1.43,2.79-2.55,4.5-3.37,1.71-.81,3.56-1.22,5.56-1.22,1.2,0,2.26,.1,3.18,.3,.92,.2,1.74,.4,2.45,.6,.71,.2,1.29,.3,1.75,.3,.8,0,1.45-.32,1.94-.97h.37l.55,9.69h-.51c-1.05-2.83-2.41-5.02-4.09-6.58s-3.5-2.33-5.47-2.33-3.51,.54-4.89,1.62c-1.39,1.08-2.46,2.62-3.21,4.64-.75,2.02-1.13,4.41-1.13,7.18,0,3.14,.43,5.95,1.29,8.42,.86,2.48,2.03,4.42,3.51,5.84,1.48,1.42,3.15,2.12,5.03,2.12,2.25,0,4.09-.8,5.54-2.4,1.44-1.6,2.72-4.22,3.83-7.85h.55l-.6,11.03h-.37c-.49-.65-1.15-.97-1.98-.97-.52,0-1.12,.1-1.8,.3-.68,.2-1.45,.4-2.31,.6s-1.85,.3-2.95,.3Z"/><path class="cls-1" d="M116.51,186.56v-.46c.68-.15,1.15-.44,1.41-.85,.26-.42,.39-1.07,.39-1.96v-24.37c0-.89-.13-1.55-.39-1.96-.26-.41-.73-.7-1.41-.85v-.46h8.26v.46c-.68,.15-1.15,.44-1.43,.85-.28,.42-.42,1.07-.42,1.96v24.37c0,.89,.14,1.55,.42,1.96,.28,.41,.75,.7,1.43,.85v.46h-8.26Zm26.13,0l-2.03-.14c-1.11-.06-2.08-.22-2.91-.49-.83-.26-1.62-.7-2.38-1.32-.75-.62-1.56-1.46-2.42-2.54-.62-.77-1.32-1.69-2.12-2.77s-1.63-2.22-2.49-3.42-1.69-2.37-2.49-3.51c-.8-1.14-1.51-2.15-2.12-3.05l6.88-6.97c1.14-1.14,1.93-2.03,2.38-2.68,.45-.65,.67-1.22,.67-1.71,0-.46-.19-.84-.58-1.13s-.99-.55-1.82-.76v-.46h9.69v.46c-.83,.31-1.67,.72-2.52,1.22-.85,.51-1.76,1.18-2.75,2.01s-2.17,1.91-3.55,3.23l-6.78,6.65,1.98-2.86c1.04,1.54,2.14,3.15,3.28,4.85,1.14,1.69,2.27,3.32,3.39,4.89s2.15,2.98,3.07,4.25c1.17,1.54,2.2,2.77,3.09,3.69,.89,.92,1.74,1.62,2.54,2.08v.46Z"/><path class="cls-1" d="M153.43,186.56v-.46c.65-.15,1.11-.43,1.39-.83,.28-.4,.42-1.06,.42-1.98v-24.37c0-.92-.14-1.58-.42-1.98s-.74-.68-1.39-.83v-.46h8.77v.46c-.89,.18-1.51,.49-1.85,.92-.34,.43-.51,1.15-.51,2.17v26.26h2.4c2.15,0,3.92-.3,5.31-.9,1.39-.6,2.51-1.61,3.37-3.02,.86-1.41,1.59-3.32,2.17-5.72h.6l-1.15,10.75h-19.11Z"/><path class="cls-1" d="M175.74,186.56v-.46c.65-.15,1.11-.43,1.39-.83,.28-.4,.42-1.06,.42-1.98v-24.37c0-.92-.14-1.58-.42-1.98s-.74-.68-1.39-.83v-.46h8.26v.46c-.68,.15-1.15,.43-1.43,.83-.28,.4-.42,1.06-.42,1.98v24.37c0,.92,.14,1.59,.42,1.98,.28,.4,.75,.68,1.43,.83v.46h-8.26Z"/><path class="cls-1" d="M187.29,186.56v-.46c.65-.15,1.11-.43,1.39-.83,.28-.4,.42-1.06,.42-1.98v-24.37c0-.92-.14-1.58-.42-1.98s-.74-.68-1.39-.83v-.46h8.77v.46c-.89,.18-1.51,.49-1.85,.92-.34,.43-.51,1.15-.51,2.17v26.26h2.4c2.15,0,3.92-.3,5.31-.9,1.39-.6,2.51-1.61,3.37-3.02,.86-1.41,1.59-3.32,2.17-5.72h.6l-1.15,10.75h-19.11Z"/><path class="cls-1" d="M209.6,186.56v-.46c.65-.15,1.11-.43,1.39-.83,.28-.4,.42-1.06,.42-1.98v-24.37c0-.92-.14-1.58-.42-1.98s-.74-.68-1.39-.83v-.46h8.26v.46c-.68,.15-1.15,.43-1.43,.83-.28,.4-.42,1.06-.42,1.98v24.37c0,.92,.14,1.59,.42,1.98,.28,.4,.75,.68,1.43,.83v.46h-8.26Z"/><path class="cls-1" d="M235.35,187.02c-2.89,0-5.45-.68-7.69-2.05-2.23-1.37-3.98-3.25-5.24-5.63-1.26-2.38-1.89-5.12-1.89-8.19,0-2.28,.35-4.38,1.06-6.32,.71-1.94,1.71-3.62,3-5.05,1.29-1.43,2.79-2.55,4.5-3.37,1.71-.81,3.56-1.22,5.56-1.22,1.2,0,2.26,.1,3.18,.3,.92,.2,1.74,.4,2.45,.6,.71,.2,1.29,.3,1.75,.3,.8,0,1.45-.32,1.94-.97h.37l.55,9.69h-.51c-1.05-2.83-2.41-5.02-4.09-6.58s-3.5-2.33-5.47-2.33-3.51,.54-4.89,1.62c-1.39,1.08-2.46,2.62-3.21,4.64-.75,2.02-1.13,4.41-1.13,7.18,0,3.14,.43,5.95,1.29,8.42,.86,2.48,2.03,4.42,3.51,5.84,1.48,1.42,3.15,2.12,5.03,2.12,2.25,0,4.09-.8,5.54-2.4,1.44-1.6,2.72-4.22,3.83-7.85h.55l-.6,11.03h-.37c-.49-.65-1.15-.97-1.98-.97-.52,0-1.12,.1-1.8,.3-.68,.2-1.45,.4-2.31,.6s-1.85,.3-2.95,.3Z"/></g><g><path class="cls-1" d="M126.62,86.61v20.22c-5.52-7.14-13.6-13.21-23.27-13.21v30.52c0,4.86,3.89,8.28,8.55,8.28h29.45v-31.02c0-8.27-6.36-14.78-14.74-14.78Z"/><path class="cls-1" d="M165.38,106.83v-20.22c-8.37,0-14.74,6.44-14.74,14.78v31.02h29.45c4.66,0,8.55-3.42,8.55-8.28v-30.52c-9.67,0-17.75,6.08-23.27,13.21Z"/><circle class="cls-1" cx="146" cy="64.39" r="17.41"/></g></svg>