<?xml version="1.0" encoding="UTF-8"?><svg id="Layer_1" xmlns="http://www.w3.org/2000/svg" viewBox="0 0 437.21 174.27"><defs><style>.cls-1{fill:#23224c;}</style></defs><g><path class="cls-1" d="M174.59,109.28v-.38c.55-.12,.93-.36,1.14-.69s.32-.87,.32-1.59v-19.8c0-.73-.11-1.26-.32-1.59-.21-.34-.59-.57-1.14-.69v-.38h8.55c2.88,0,5.35,.5,7.42,1.5,2.08,1,3.68,2.44,4.8,4.31,1.12,1.88,1.69,4.13,1.69,6.75s-.56,4.84-1.69,6.71c-1.13,1.88-2.73,3.32-4.8,4.33s-4.55,1.52-7.42,1.52h-8.55Zm5.21-.9h3.34c3.17,0,5.59-.99,7.26-2.98,1.66-1.99,2.49-4.88,2.49-8.68s-.84-6.73-2.51-8.7c-1.68-1.98-4.09-2.96-7.24-2.96h-3.34v23.33Z"/><path class="cls-1" d="M199.26,84.15h7.39c3.08,0,5.46,.52,7.16,1.56,1.7,1.04,2.55,2.49,2.55,4.37,0,1.65-.57,2.98-1.72,3.99-1.15,1.01-2.8,1.66-4.95,1.93v.11c1,.23,1.81,.49,2.44,.81,.62,.31,1.15,.71,1.57,1.18s.79,1.09,1.09,1.84l2.48,5.63c.32,.7,.62,1.28,.88,1.72,.26,.45,.53,.79,.81,1.01,.28,.22,.6,.43,.98,.6v.38l-1.88-.07c-.8-.02-1.46-.13-1.99-.32s-.97-.51-1.33-.96c-.36-.45-.73-1.08-1.11-1.88l-2.96-6.04c-.43-.95-.83-1.66-1.22-2.14-.39-.47-.85-.79-1.39-.96s-1.26-.24-2.16-.24h-1.42v9.94c0,.73,.11,1.26,.34,1.59s.61,.57,1.16,.69v.38h-6.71v-.38c.55-.12,.93-.36,1.14-.69s.32-.87,.32-1.59v-19.8c0-.73-.11-1.26-.32-1.59-.21-.34-.59-.57-1.14-.69v-.38Zm5.21,.9v10.73h2.4c1.75,0,3.12-.5,4.11-1.5,.99-1,1.48-2.41,1.48-4.24,0-3.33-1.94-4.99-5.81-4.99h-2.17Z"/><path class="cls-1" d="M227.96,109.28v-.38c.7-.27,1.24-.68,1.63-1.2,.39-.52,.67-1.25,.84-2.17,.17-.92,.26-2.11,.26-3.56v-16.58h1.09v16.5c0,1.38,.11,2.51,.34,3.41s.6,1.63,1.13,2.19,1.24,1.03,2.14,1.41v.38h-7.43Zm19.88,.26l-16.73-22.24-.75-1.01c-.25-.38-.49-.67-.71-.88-.23-.21-.45-.39-.68-.54s-.46-.26-.71-.34v-.38h5.21l14.59,19.47,.34,5.93h-.56Zm.56,0l-1.09-1.13v-17.82c0-1.2-.1-2.19-.3-2.98-.2-.79-.54-1.43-1.01-1.91-.47-.49-1.13-.88-1.95-1.18v-.38h6.79v.38c-.57,.28-1.04,.64-1.39,1.09-.35,.45-.61,1.06-.79,1.82-.18,.76-.26,1.77-.26,3.02v19.09Z"/><path class="cls-1" d="M253.01,109.28v-.38c.52-.12,.9-.35,1.13-.68,.23-.32,.34-.86,.34-1.61v-19.8c0-.75-.11-1.29-.34-1.61-.23-.32-.6-.55-1.13-.67v-.38h6.71v.38c-.55,.12-.94,.35-1.16,.67-.23,.33-.34,.86-.34,1.61v19.8c0,.75,.11,1.29,.34,1.61,.23,.33,.61,.55,1.16,.68v.38h-6.71Z"/><path class="cls-1" d="M274.03,109.65c-2.35,0-4.43-.56-6.25-1.67-1.81-1.11-3.23-2.64-4.26-4.58-1.03-1.94-1.54-4.16-1.54-6.66,0-1.85,.29-3.56,.86-5.14s1.39-2.94,2.44-4.11c1.05-1.16,2.27-2.08,3.66-2.74s2.89-.99,4.52-.99c.98,0,1.84,.08,2.59,.24,.75,.16,1.41,.33,1.99,.49,.57,.16,1.05,.24,1.43,.24,.65,0,1.17-.26,1.57-.79h.3l.45,7.88h-.41c-.85-2.3-1.96-4.08-3.32-5.35-1.36-1.26-2.84-1.89-4.45-1.89s-2.85,.44-3.97,1.31-1.99,2.13-2.61,3.77c-.61,1.64-.92,3.58-.92,5.83,0,2.55,.35,4.83,1.05,6.84,.7,2.01,1.65,3.6,2.85,4.75,1.2,1.15,2.56,1.72,4.09,1.72,1.83,0,3.33-.65,4.5-1.95s2.21-3.43,3.11-6.38h.45l-.49,8.96h-.3c-.4-.52-.94-.79-1.61-.79-.43,0-.91,.08-1.46,.24-.55,.16-1.18,.33-1.87,.49-.7,.16-1.5,.24-2.4,.24Z"/><path class="cls-1" d="M285.03,109.28v-.38c.55-.12,.93-.36,1.14-.69s.32-.87,.32-1.59v-19.8c0-.73-.11-1.26-.32-1.59-.21-.34-.59-.57-1.14-.69v-.38h6.71v.38c-.55,.12-.94,.36-1.16,.69-.23,.34-.34,.87-.34,1.59v19.8c0,.73,.11,1.26,.34,1.59s.61,.57,1.16,.69v.38h-6.71Zm21.23,0l-1.65-.11c-.9-.05-1.69-.18-2.36-.39-.67-.21-1.32-.57-1.93-1.07-.61-.5-1.27-1.19-1.97-2.06-.5-.62-1.08-1.37-1.72-2.25-.65-.87-1.33-1.8-2.03-2.78-.7-.98-1.38-1.93-2.03-2.85-.65-.92-1.23-1.75-1.73-2.48l5.59-5.66c.93-.92,1.57-1.65,1.93-2.18s.54-.99,.54-1.39c0-.38-.16-.68-.47-.92-.31-.24-.81-.44-1.48-.62v-.38h7.88v.38c-.68,.25-1.36,.58-2.04,.99-.69,.41-1.43,.96-2.23,1.63-.8,.68-1.76,1.55-2.89,2.63l-5.51,5.4,1.61-2.33c.85,1.25,1.74,2.56,2.66,3.94,.93,1.38,1.84,2.7,2.76,3.98,.91,1.28,1.74,2.43,2.49,3.45,.95,1.25,1.79,2.25,2.51,3,.72,.75,1.41,1.31,2.06,1.69v.38Z"/><path class="cls-1" d="M315.03,109.28v-.38c.52-.12,.9-.35,1.13-.68,.23-.32,.34-.86,.34-1.61v-19.8c0-.75-.11-1.29-.34-1.61-.23-.32-.6-.55-1.13-.67v-.38h7.13v.38c-.72,.15-1.23,.4-1.5,.75s-.41,.94-.41,1.76v21.34h1.95c1.75,0,3.19-.24,4.31-.73s2.04-1.31,2.74-2.46c.7-1.15,1.29-2.7,1.76-4.65h.49l-.94,8.74h-15.53Z"/><path class="cls-1" d="M333.26,109.28v-.38c.52-.12,.9-.35,1.13-.68,.23-.32,.34-.86,.34-1.61v-19.8c0-.75-.11-1.29-.34-1.61-.23-.32-.6-.55-1.13-.67v-.38h6.71v.38c-.55,.12-.94,.35-1.16,.67-.23,.33-.34,.86-.34,1.61v19.8c0,.75,.11,1.29,.34,1.61,.23,.33,.61,.55,1.16,.68v.38h-6.71Z"/><path class="cls-1" d="M342.75,109.28v-.38c.52-.12,.9-.35,1.13-.68,.23-.32,.34-.86,.34-1.61v-19.8c0-.75-.11-1.29-.34-1.61-.23-.32-.6-.55-1.13-.67v-.38h7.13v.38c-.72,.15-1.23,.4-1.5,.75s-.41,.94-.41,1.76v21.34h1.95c1.75,0,3.19-.24,4.31-.73s2.04-1.31,2.74-2.46c.7-1.15,1.29-2.7,1.76-4.65h.49l-.94,8.74h-15.53Z"/><path class="cls-1" d="M360.97,109.28v-.38c.52-.12,.9-.35,1.13-.68,.23-.32,.34-.86,.34-1.61v-19.8c0-.75-.11-1.29-.34-1.61-.23-.32-.6-.55-1.13-.67v-.38h6.71v.38c-.55,.12-.94,.35-1.16,.67-.23,.33-.34,.86-.34,1.61v19.8c0,.75,.11,1.29,.34,1.61,.23,.33,.61,.55,1.16,.68v.38h-6.71Z"/><path class="cls-1" d="M382,109.65c-2.35,0-4.43-.56-6.25-1.67-1.81-1.11-3.23-2.64-4.26-4.58-1.03-1.94-1.54-4.16-1.54-6.66,0-1.85,.29-3.56,.86-5.14s1.39-2.94,2.44-4.11c1.05-1.16,2.27-2.08,3.66-2.74s2.89-.99,4.52-.99c.98,0,1.84,.08,2.59,.24,.75,.16,1.41,.33,1.99,.49,.57,.16,1.05,.24,1.43,.24,.65,0,1.17-.26,1.57-.79h.3l.45,7.88h-.41c-.85-2.3-1.96-4.08-3.32-5.35-1.36-1.26-2.84-1.89-4.45-1.89s-2.85,.44-3.97,1.31-1.99,2.13-2.61,3.77c-.61,1.64-.92,3.58-.92,5.83,0,2.55,.35,4.83,1.05,6.84,.7,2.01,1.65,3.6,2.85,4.75,1.2,1.15,2.56,1.72,4.09,1.72,1.83,0,3.33-.65,4.5-1.95s2.21-3.43,3.11-6.38h.45l-.49,8.96h-.3c-.4-.52-.94-.79-1.61-.79-.43,0-.91,.08-1.46,.24-.55,.16-1.18,.33-1.87,.49-.7,.16-1.5,.24-2.4,.24Z"/></g><g><path class="cls-1" d="M182.14,119.88h1.56v10.22h-1.56v-4.48h-5.31v4.48h-1.56v-10.22h1.56v4.41h5.31v-4.41Z"/><path class="cls-1" d="M193.04,121.2h-5.81v2.96h5.23v1.3h-5.23v3.3h5.75v1.33h-7.32v-10.22h7.37v1.33Z"/><path class="cls-1" d="M202.01,130.09l-1.1-2.77h-4.67l-1.08,2.77h-1.62l4.07-10.22h1.87l4.17,10.22h-1.65Zm-1.62-4.09l-.85-2.16c-.36-.88-.68-1.73-.95-2.55h-.09c-.18,.57-.49,1.42-.92,2.54l-.85,2.18h3.65Z"/><path class="cls-1" d="M213.37,124.98c0,1.69-.46,2.97-1.38,3.83s-2.17,1.28-3.76,1.28h-3.61v-10.22h3.61c1.59,0,2.84,.44,3.76,1.31s1.38,2.14,1.38,3.8Zm-2.52,2.84c.61-.63,.92-1.57,.92-2.84s-.31-2.22-.93-2.85c-.62-.62-1.5-.93-2.63-.93h-2.02v7.56h2.03c1.14,0,2.01-.31,2.63-.94Z"/><path class="cls-1" d="M224.9,130.09l-.86-.96c-.43,.39-.91,.69-1.45,.89-.54,.21-1.1,.31-1.68,.31-.99,0-1.79-.24-2.4-.72s-.9-1.12-.9-1.94c0-.68,.23-1.27,.69-1.76,.46-.49,1.1-.82,1.92-.97v-.07c-.57-.58-.98-1.08-1.21-1.5s-.35-.85-.35-1.28c0-.48,.12-.9,.36-1.28,.24-.38,.58-.68,1.01-.89,.44-.21,.93-.32,1.49-.32s1.01,.1,1.44,.31c.42,.2,.76,.49,1,.85s.37,.78,.37,1.23c0,.57-.21,1.09-.64,1.55-.42,.46-1.06,.76-1.91,.92v.07h-.03l2.2,2.47c.27-.56,.41-1.21,.42-1.94h1.42c-.06,1.19-.35,2.19-.88,3.02l1.8,2.03h-1.81Zm-4.47-5.01c-.47,.24-.82,.56-1.07,.94-.24,.38-.37,.78-.37,1.19,0,.51,.18,.93,.52,1.28,.35,.35,.86,.52,1.52,.52,.81,0,1.51-.29,2.11-.88l-2.73-3.05Zm-.28-2.96c0,.28,.09,.58,.29,.88,.19,.31,.56,.74,1.12,1.29,.89-.59,1.34-1.32,1.34-2.17,0-.36-.13-.67-.38-.92-.25-.25-.58-.38-.99-.38s-.76,.13-1.01,.38c-.24,.25-.37,.56-.37,.92Z"/><path class="cls-1" d="M232.46,126.02v4.07h-1.55v-10.22h1.81l3.44,5.21,.67,1.04c.55,.83,.93,1.42,1.14,1.77h.06c-.04-1.06-.06-2.13-.06-3.23v-4.79h1.55v10.22h-1.8l-3.02-4.6-.18-.26c-.85-1.29-1.55-2.37-2.07-3.23h-.07c.05,.97,.07,2.3,.07,4.01Z"/><path class="cls-1" d="M248.86,121.2h-5.81v2.96h5.23v1.3h-5.23v3.3h5.75v1.33h-7.32v-10.22h7.37v1.33Z"/><path class="cls-1" d="M258.57,128.37c-.39,.61-.93,1.09-1.6,1.44s-1.45,.52-2.34,.52c-.97,0-1.83-.22-2.58-.66-.75-.44-1.32-1.06-1.72-1.87-.41-.81-.61-1.76-.61-2.85s.2-2.03,.61-2.83c.4-.8,.97-1.41,1.71-1.84s1.6-.64,2.58-.64c.88,0,1.67,.17,2.34,.52s1.21,.82,1.61,1.44c.4,.61,.64,1.31,.72,2.1h-1.62c-.12-.8-.44-1.45-.97-1.96-.53-.51-1.22-.76-2.08-.76-.65,0-1.23,.16-1.73,.47-.5,.32-.89,.77-1.16,1.37-.27,.6-.41,1.31-.41,2.12s.14,1.53,.41,2.14c.27,.61,.66,1.08,1.16,1.4,.5,.33,1.08,.49,1.73,.49,.84,0,1.52-.26,2.05-.77,.53-.51,.86-1.16,.99-1.95h1.62c-.09,.79-.33,1.49-.72,2.1Z"/><path class="cls-1" d="M266.95,124.6c.41,.29,.73,.75,.96,1.38l1.55,4.12h-1.62l-1.27-3.43c-.19-.5-.4-.83-.64-1s-.6-.26-1.07-.26h-.98l-1.55,1.64v3.05h-1.56v-10.22h1.56l-.06,5.27,.09,.03c.65-.79,1.51-1.74,2.57-2.86l2.28-2.44h1.91l-2.4,2.53c-.47,.51-1.01,1.07-1.64,1.69l.03,.07h.13c.72,0,1.28,.14,1.69,.43Z"/><path class="cls-1" d="M273.95,128.68c-.36-.53-.54-1.14-.54-1.85h1.58c0,.67,.28,1.18,.8,1.56,.53,.38,1.23,.57,2.1,.58,.82,0,1.47-.15,1.95-.45,.48-.3,.72-.71,.72-1.23,0-.33-.11-.61-.34-.83s-.56-.39-.98-.5l-2.72-.61c-.92-.21-1.62-.56-2.09-1.04s-.71-1.09-.71-1.82c0-.88,.37-1.57,1.12-2.07,.75-.51,1.75-.76,3.03-.76s2.32,.31,3.06,.94c.75,.63,1.13,1.49,1.14,2.59h-1.56c0-.68-.25-1.21-.73-1.6-.48-.39-1.13-.58-1.96-.58-.77,0-1.38,.14-1.82,.41-.45,.27-.67,.64-.67,1.09,0,.71,.56,1.2,1.68,1.46l2.69,.64c.76,.18,1.36,.47,1.81,.88,.45,.41,.67,1.01,.67,1.8,0,.61-.17,1.15-.52,1.6-.35,.45-.84,.8-1.49,1.05-.65,.25-1.4,.37-2.27,.37-.91,0-1.71-.14-2.39-.43-.68-.29-1.2-.69-1.56-1.22Z"/><path class="cls-1" d="M284.97,119.88v6.29c0,.9,.23,1.59,.68,2.08,.45,.49,1.13,.74,2.02,.74s1.58-.25,2.03-.74c.45-.49,.67-1.19,.67-2.1v-6.28h1.56v6.32c0,1.3-.38,2.32-1.13,3.04-.75,.72-1.8,1.09-3.13,1.09s-2.36-.36-3.12-1.09c-.76-.73-1.13-1.74-1.13-3.06v-6.31h1.55Z"/><path class="cls-1" d="M300.39,130.09l-.47-2.6c-.07-.38-.16-.66-.28-.85s-.3-.32-.54-.4-.58-.12-1.01-.12h-2.77v3.97h-1.56v-10.22h4.64c1.02,0,1.83,.23,2.44,.7,.6,.47,.9,1.09,.9,1.87,0,.71-.23,1.3-.69,1.78-.46,.48-1.06,.74-1.81,.79v.1c.69,.03,1.19,.19,1.5,.48,.31,.29,.53,.78,.66,1.46l.58,3.04h-1.59Zm-2.26-5.24c.62,0,1.12-.17,1.5-.52s.56-.8,.56-1.37-.19-.96-.56-1.28-.87-.48-1.5-.48h-2.82v3.65h2.82Z"/><path class="cls-1" d="M307.66,130.33c-.97,0-1.82-.23-2.53-.69s-1.25-1.09-1.63-1.9-.56-1.73-.56-2.76,.19-1.91,.56-2.71,.94-1.45,1.71-1.92c.76-.47,1.71-.71,2.84-.71,.91,0,1.71,.18,2.38,.53s1.2,.82,1.58,1.39c.38,.58,.61,1.21,.7,1.9h-1.62c-.14-.73-.48-1.33-1-1.79-.52-.46-1.2-.69-2.04-.69-1.19,0-2.07,.39-2.64,1.14-.57,.75-.86,1.7-.86,2.86s.3,2.14,.88,2.88,1.5,1.12,2.72,1.12c.6,0,1.15-.13,1.64-.39,.49-.26,.88-.6,1.15-1.02,.28-.42,.42-.86,.43-1.32v-.21h-3.87v-1.27h5.39v5.31h-1.43l-.12-2.29h-.09c-.56,1.68-1.77,2.53-3.61,2.53Z"/><path class="cls-1" d="M322.09,121.2h-5.81v2.96h5.23v1.3h-5.23v3.3h5.75v1.33h-7.32v-10.22h7.37v1.33Z"/><path class="cls-1" d="M323.6,127.8c-.43-.81-.64-1.76-.64-2.84s.21-2.02,.64-2.82c.43-.8,1.03-1.41,1.79-1.85,.77-.43,1.64-.65,2.64-.65s1.87,.22,2.63,.65c.77,.43,1.36,1.05,1.79,1.85,.43,.8,.64,1.74,.64,2.82s-.21,2.03-.64,2.84c-.43,.81-1.02,1.44-1.79,1.88-.76,.44-1.64,.66-2.63,.66s-1.87-.22-2.64-.66c-.76-.44-1.36-1.06-1.79-1.88Zm7.43-.69c.29-.6,.44-1.32,.44-2.15s-.15-1.51-.44-2.11c-.29-.6-.7-1.06-1.22-1.38-.52-.32-1.12-.48-1.79-.48s-1.27,.16-1.8,.48c-.53,.32-.93,.78-1.23,1.38-.29,.6-.44,1.3-.44,2.11s.15,1.54,.44,2.15c.29,.6,.7,1.07,1.23,1.39,.53,.32,1.12,.48,1.8,.48s1.27-.16,1.79-.48c.52-.32,.93-.78,1.22-1.39Z"/><path class="cls-1" d="M336.16,126.02v4.07h-1.55v-10.22h1.81l3.44,5.21,.67,1.04c.55,.83,.93,1.42,1.14,1.77h.06c-.04-1.06-.06-2.13-.06-3.23v-4.79h1.55v10.22h-1.8l-3.02-4.6-.18-.26c-.85-1.29-1.55-2.37-2.07-3.23h-.07c.05,.97,.07,2.3,.07,4.01Z"/></g><g><path class="cls-1" d="M70.91,83.98v20.71c-5.66-7.31-13.93-13.54-23.84-13.54v31.27c0,4.98,3.99,8.48,8.76,8.48h30.18v-31.78c0-8.48-6.52-15.14-15.1-15.14Z"/><path class="cls-1" d="M110.63,104.69v-20.71c-8.58,0-15.1,6.6-15.1,15.14v31.78h30.18c4.77,0,8.76-3.5,8.76-8.48v-31.27c-9.91,0-18.18,6.23-23.84,13.54Z"/><circle class="cls-1" cx="90.77" cy="61.21" r="17.84"/></g></svg>